<svg xmlns="http://www.w3.org/2000/svg" xmlns:xlink="http://www.w3.org/1999/xlink" viewBox="0,0,256,256" width="64px" height="64px"><defs><linearGradient x1="31.5" y1="8" x2="31.5" y2="56" gradientUnits="userSpaceOnUse" id="color-1"><stop offset="0" stop-color="#1a6dff"></stop><stop offset="1" stop-color="#c822ff"></stop></linearGradient><linearGradient x1="36.5" y1="12" x2="36.5" y2="36" gradientUnits="userSpaceOnUse" id="color-2"><stop offset="0" stop-color="#8ab4ff"></stop><stop offset="1" stop-color="#e492ff"></stop></linearGradient></defs><g fill="none" fill-rule="nonzero" stroke="#7672e1" stroke-width="4" stroke-linecap="butt" stroke-linejoin="miter" stroke-miterlimit="10" stroke-dasharray="" stroke-dashoffset="0" font-family="none" font-weight="none" font-size="none" text-anchor="none" style="mix-blend-mode: normal"><path d="M121.16953,241.84117c-59.10038,0 -107.0107,-47.91032 -107.0107,-107.0107v-13.66094c0,-59.10038 47.91032,-107.0107 107.0107,-107.0107h13.66094c59.10038,0 107.0107,47.91032 107.0107,107.0107v13.66094c0,59.10038 -47.91032,107.0107 -107.0107,107.0107z" id="shape"></path></g><g fill="none" fill-rule="nonzero" stroke="none" stroke-width="1" stroke-linecap="butt" stroke-linejoin="miter" stroke-miterlimit="10" stroke-dasharray="" stroke-dashoffset="0" font-family="none" font-weight="none" font-size="none" text-anchor="none" style="mix-blend-mode: normal"><g transform="scale(4,4)"><path d="M44,9v6.563c-2.452,-4.636 -6.97,-7.563 -12.5,-7.563c-8.402,0 -14.5,6.729 -14.5,16c0,9.271 6.098,16 14.5,16c5.53,0 10.048,-2.927 12.5,-7.563v11.563c0,6.075 -4.71,10 -12,10c-8.857,0 -12,-4.848 -12,-9h-2c0,5.475 4.329,11 14,11c6.969,0 14,-3.71 14,-12v-35zM31.5,38c-7.359,0 -12.5,-5.757 -12.5,-14c0,-8.243 5.141,-14 12.5,-14c7.359,0 12.5,5.757 12.5,14c0,8.243 -5.141,14 -12.5,14z" fill="url(#color-1)"></path><path d="M42,24c0,7.18 -4.22,12 -10.5,12c-0.17,0 -0.34,0 -0.5,-0.01v-23.98c0.16,-0.01 0.33,-0.01 0.5,-0.01c6.28,0 10.5,4.82 10.5,12z" fill="url(#color-2)"></path></g></g></svg>